Coordinates
version=1
nRows=17
nColumns=40
inDegrees=yes

Units are S.I. units (second, meters, Newtons, ...)
Angles are in degrees.

endheader
time	pelvis_tilt	pelvis_list	pelvis_rotation	pelvis_tx	pelvis_ty	pelvis_tz	hip_flexion_r	hip_adduction_r	hip_rotation_r	knee_angle_r	knee_angle_r_beta	ankle_angle_r	subtalar_angle_r	mtp_angle_r	hip_flexion_l	hip_adduction_l	hip_rotation_l	knee_angle_l	knee_angle_l_beta	ankle_angle_l	subtalar_angle_l	mtp_angle_l	lumbar_extension	lumbar_bending	lumbar_rotation	arm_flex_r	arm_add_r	arm_rot_r	elbow_flex_r	pro_sup_r	wrist_flex_r	wrist_dev_r	arm_flex_l	arm_add_l	arm_rot_l	elbow_flex_l	pro_sup_l	wrist_flex_l	wrist_dev_l
     42.44500000	     -6.35913377	     -5.08017293	      2.95558732	      1.06454010	      0.91374739	      0.42092564	      2.17224742	     -1.39713039	    -13.89986062	     32.53700880	     32.53700880	     11.77691053	     -9.91767337	    -11.99340349	     31.69012648	     -6.45850764	     -5.08291537	     27.29473629	     27.29473629	      6.03947158	    -14.26443198	      3.97385267	     -7.07007269	      4.87650325	      4.78123978	     39.66653672	    -14.97309279	     -3.88689242	    111.96226287	     44.18831944	      0.00000000	      0.00000000	    -10.58115394	     -5.95233032	     11.75357246	     23.33042523	     44.15416222	      0.00000000	      0.00000000
     42.45628571	     -6.37855892	     -4.88539697	      2.62186950	      1.06422884	      0.91537528	      0.41884763	      4.25248310	     -2.27085623	    -13.55738280	     36.97867087	     36.97867087	     10.21727600	    -12.00035576	    -11.88733666	     30.83246551	     -6.34458207	     -5.65255036	     27.06138472	     27.06138472	      6.72313691	    -13.94853204	      3.57465467	     -7.08219524	      4.66592061	      4.53958421	     37.62564699	    -14.69426447	     -3.44115319	    111.15680435	     44.19910975	      0.00000000	      0.00000000	     -9.23490475	     -6.28208003	     11.62352267	     23.78610393	     44.21701623	      0.00000000	      0.00000000
     42.46757143	     -6.36028902	     -4.69412653	      2.26737197	      1.06373882	      0.91698221	      0.41692322	      6.42505693	     -3.07625833	    -13.13517052	     41.44063413	     41.44063413	      8.64028707	    -14.10239521	    -11.38562220	     29.91634690	     -6.24606368	     -6.29694596	     26.77836690	     26.77836690	      7.34553284	    -13.59412344	      3.16154820	     -7.18075684	      4.43957632	      4.31282940	     35.50602657	    -14.41972303	     -2.98599769	    110.27005077	     44.20931061	      0.00000000	      0.00000000	     -7.78199967	     -6.65669451	     11.48027498	     24.29795919	     44.27848700	      0.00000000	      0.00000000
     42.47885714	     -6.40046899	     -4.50432379	      1.91251252	      1.06300718	      0.91836277	      0.41520075	      8.80508799	     -3.80038276	    -12.61122300	     45.90914310	     45.90914310	      7.23861776	    -16.14793210	    -10.40186626	     29.04730194	     -6.14613239	     -6.93219537	     26.42275186	     26.42275186	      7.88582766	    -13.15307584	      2.70405828	     -7.18513001	      4.22613813	      4.12666089	     33.32802870	    -14.24141326	     -2.56992626	    109.18093529	     44.22696473	      0.00000000	      0.00000000	     -6.26839744	     -7.07344186	     11.29553721	     24.88510090	     44.34668341	      0.00000000	      0.00000000
     42.49014286	     -6.45440165	     -4.44642719	      1.56196469	      1.06203627	      0.91958800	      0.41372747	     11.57571101	     -4.22661310	    -11.85626264	     50.92621316	     50.92621316	      8.80754435	    -16.42444295	     -1.08144906	     28.18172854	     -6.20349827	     -7.61557586	     25.94455094	     25.94455094	      7.84643962	    -12.74594971	      0.89738782	     -7.17664351	      4.17193626	      3.89215962	     31.27468200	    -14.06519357	     -2.26907801	    107.41376081	     44.33283475	      0.00000000	      0.00000000	     -4.86690552	     -7.43903171	     10.04161646	     25.83122899	     44.68642429	      0.00000000	      0.00000000
     42.50142857	     -6.42181176	     -4.25974039	      1.22372590	      1.06100955	      0.92075580	      0.41220430	     14.04867002	     -4.84862466	    -11.35201622	     55.19423348	     55.19423348	      8.54909558	    -17.33218550	      1.96931748	     27.24118867	     -6.08647685	     -8.24937101	     25.53566348	     25.53566348	      8.20178119	    -12.34403154	      0.15864011	     -7.27837499	      3.98212719	      3.64716970	     29.15125063	    -13.85528328	     -2.00581838	    105.54657194	     44.41664445	      0.00000000	      0.00000000	     -3.28452093	     -7.88474707	      9.24514881	     26.60642940	     44.89778277	      0.00000000	      0.00000000
     42.51271429	     -6.21587987	     -4.14947154	      1.01457242	      1.05985347	      0.92207483	      0.41062760	     16.17451035	     -5.44201662	    -11.13569512	     58.88622541	     58.88622541	      7.59729416	    -18.11177403	      2.15607772	     26.21778514	     -5.96898285	     -8.60540170	     25.23653485	     25.23653485	      8.63325720	    -12.12005020	     -0.04690812	     -7.67348824	      3.89830545	      3.22187182	     27.04632274	    -13.52577908	     -1.52232461	    104.50911362	     44.42790364	      0.00000000	      0.00000000	     -1.57435620	     -8.42934195	      9.07812814	     27.22768893	     44.95606443	      0.00000000	      0.00000000
     42.52400000	     -6.31661287	     -3.79228360	      0.62403458	      1.05854212	      0.92286496	      0.40910389	     18.81032217	     -6.23034519	    -10.59991765	     62.52665384	     62.52665384	      7.17962787	    -18.55828489	      2.95205123	     25.37698749	     -5.62944715	     -9.26839222	     24.72057739	     24.72057739	      9.03324745	    -11.77290169	     -0.37538465	     -7.65392552	      3.58158659	      3.17201924	     24.61848010	    -13.69521344	     -1.25094717	    102.50492916	     44.47759152	      0.00000000	      0.00000000	      0.12269641	     -9.00508057	      8.79315831	     28.02832010	     45.03347534	      0.00000000	      0.00000000
     42.53528571	     -6.17868868	     -3.72040324	      0.38077525	      1.05719755	      0.92393065	      0.40775298	     21.28375833	     -6.44651899	     -9.94079892	     66.00886571	     66.00886571	      8.59865897	    -18.47811607	      9.30788972	     24.35118982	     -5.54732310	     -9.68520345	     24.20862736	     24.20862736	      8.95464486	    -11.65152963	     -1.77147586	     -7.87857973	      3.58309403	      2.63759903	     22.94052120	    -13.31103014	     -1.10321524	     99.07585851	     44.61807584	      0.00000000	      0.00000000	      1.61404537	     -9.54987743	      7.46116472	     29.27564242	     45.30213976	      0.00000000	      0.00000000
     42.54657143	     -5.98995178	     -3.59509557	      0.17571919	      1.05586483	      0.92497967	      0.40629134	     23.43396721	     -6.83265262	     -9.52128165	     68.68228286	     68.68228286	      8.13961824	    -18.68649919	      9.18938718	     23.36743673	     -5.37737947	    -10.00811609	     23.90126046	     23.90126046	      9.35760238	    -11.44968443	     -1.94761168	     -8.26353899	      3.55225369	      2.31970172	     20.63526253	    -13.26443748	     -0.73773924	     97.48847882	     44.65013679	      0.00000000	      0.00000000	      3.46563440	    -10.20333769	      7.22801551	     30.00953152	     45.36739962	      0.00000000	      0.00000000
     42.55785714	     -5.80952725	     -3.50122827	     -0.01404696	      1.05450050	      0.92602796	      0.40486993	     25.53707775	     -7.11324154	     -9.09802542	     70.90288835	     70.90288835	      7.79953523	    -18.79839886	      9.13439089	     22.37168662	     -5.22087918	    -10.27514662	     23.53157529	     23.53157529	      9.77271643	    -11.21961350	     -2.14659465	     -8.66347195	      3.57660369	      2.09094894	     18.36729132	    -13.37770324	     -0.52330369	     95.47412411	     44.70035403	      0.00000000	      0.00000000	      5.41472393	    -10.87548024	      6.98302166	     30.81894337	     45.43397917	      0.00000000	      0.00000000
     42.56914286	     -5.69413837	     -3.35089910	     -0.29270011	      1.05324019	      0.92700167	      0.40351016	     27.71108306	     -7.31688777	     -8.46321773	     72.73724961	     72.73724961	      7.53515760	    -18.74210512	      9.21154344	     21.30455796	     -5.00184814	    -10.70454159	     22.92978444	     22.92978444	     10.10580962	    -10.96086343	     -2.44032780	     -8.84071531	      3.51242078	      2.42305612	     16.15725634	    -13.97671408	     -0.78468548	     91.82704232	     44.82031216	      0.00000000	      0.00000000	      7.42527521	    -11.21538842	      6.68131607	     31.81657951	     45.51042203	      0.00000000	      0.00000000
     42.58042857	     -5.42837265	     -3.38642284	     -0.45513362	      1.05199682	      0.92817051	      0.40225650	     29.54562342	     -7.27558388	     -8.00269999	     73.98678554	     73.98678554	      7.25645537	    -18.68816616	      9.40684491	     20.16816090	     -4.94918605	    -10.89856687	     22.42922584	     22.42922584	     10.17448356	    -10.92348363	     -3.30047354	     -9.18309216	      3.66724563	      1.80009161	     15.00376610	    -13.24969859	     -1.46829087	     86.60293944	     45.01583446	      0.00000000	      0.00000000	      9.18738332	    -11.89393588	      6.07730278	     32.50791431	     45.62869256	      0.00000000	      0.00000000
     42.59171429	     -5.19820482	     -3.41769096	     -0.62885481	      1.05080488	      0.92923882	      0.40107646	     31.29116427	     -7.19458974	     -7.54855377	     74.71668954	     74.71668954	      6.78443681	    -18.58824530	      8.92231910	     19.06437544	     -4.88649279	    -11.07820749	     21.93643807	     21.93643807	     10.40254152	    -10.83002698	     -3.82410462	     -9.55915454	      3.82655275	      1.59725990	     13.35391206	    -13.30428357	     -1.60010247	     82.64796378	     45.14687749	      0.00000000	      0.00000000	     11.07344751	    -12.49440907	      5.55780226	     33.47294689	     45.73285541	      0.00000000	      0.00000000
     42.60300000	     -4.95240432	     -3.44032405	     -0.80965753	      1.04968149	      0.93020503	      0.39993304	     32.91156914	     -7.08476263	     -7.09049877	     75.00356820	     75.00356820	      6.37246242	    -18.42198091	      8.63109799	     17.95136107	     -4.81023385	    -11.28653410	     21.47086123	     21.47086123	     10.76588990	    -10.67599391	     -3.97574089	     -9.98602019	      4.00311637	      1.81525794	     11.13734426	    -13.86515624	     -1.56438840	     79.67784179	     45.23396401	      0.00000000	      0.00000000	     13.12413306	    -12.86866042	      5.29888935	     34.57736387	     45.79918057	      0.00000000	      0.00000000
     42.61428571	     -4.70215257	     -3.53598188	     -0.94804721	      1.04858258	      0.93118050	      0.39897358	     34.29292513	     -6.92126592	     -6.79609772	     74.67764966	     74.67764966	      5.63777248	    -18.25862252	      7.38028219	     16.85479472	     -4.82017151	    -11.43406298	     21.03027935	     21.03027935	     11.00475580	    -10.57084109	     -4.45298629	    -10.33761156	      4.22404018	      1.37632446	     10.27842577	    -13.34288588	     -2.45635528	     73.86744908	     45.44772274	      0.00000000	      0.00000000	     14.86636177	    -13.59738279	      5.03257134	     35.49849738	     45.86251632	      0.00000000	      0.00000000
     42.62557143	     -4.46702692	     -3.62258715	     -1.09160446	      1.04756174	      0.93199729	      0.39805109	     35.53594809	     -6.73801912	     -6.51275042	     73.89330657	     73.89330657	      4.96930708	    -18.06632597	      6.35256160	     15.77083345	     -4.80646810	    -11.55603076	     20.58950206	     20.58950206	     11.30923759	    -10.48654760	     -4.75178621	    -10.70741811	      4.45893442	      1.25622180	      9.01702358	    -13.34980246	     -2.90589125	     69.03720084	     45.60832389	      0.00000000	      0.00000000	     16.59085579	    -14.19736436	      4.76493858	     36.85060155	     45.92678210	      0.00000000	      0.00000000
